<?xml version="1.0" encoding="UTF-8" standalone="no"?>
<!-- Created with Inkscape (http://www.inkscape.org/) -->

<svg
   width="300mm"
   height="300mm"
   viewBox="0 0 300 300"
   version="1.1"
   id="svg1"
   inkscape:version="1.3 (0e150ed6c4, 2023-07-21)"
   sodipodi:docname="accroches.svg"
   xmlns:inkscape="http://www.inkscape.org/namespaces/inkscape"
   xmlns:sodipodi="http://sodipodi.sourceforge.net/DTD/sodipodi-0.dtd"
   xmlns="http://www.w3.org/2000/svg"
   xmlns:svg="http://www.w3.org/2000/svg">
  <sodipodi:namedview
     id="namedview1"
     pagecolor="#ffffff"
     bordercolor="#111111"
     borderopacity="1"
     inkscape:showpageshadow="0"
     inkscape:pageopacity="0"
     inkscape:pagecheckerboard="1"
     inkscape:deskcolor="#d1d1d1"
     inkscape:document-units="mm"
     inkscape:zoom="0.47307605"
     inkscape:cx="154.30923"
     inkscape:cy="390.00072"
     inkscape:window-width="1920"
     inkscape:window-height="986"
     inkscape:window-x="-11"
     inkscape:window-y="-11"
     inkscape:window-maximized="1"
     inkscape:current-layer="layer1" />
  <defs
     id="defs1" />
  <g
     inkscape:label="Calque 1"
     inkscape:groupmode="layer"
     id="layer1">
    <path
       id="rect1"
       style="fill:#000000;stroke-width:0.213314"
       d="M 0,0 V 7.0000895 9.9999064 H 5.0002116 V 7.0000895 H 13.00024 A 7,7 0 0 0 19.999813,0.0232544 V 0 H 13.00024 5.0002116 Z m 15.499829,1.9998779 a 1,1 0 0 1 0.999939,0.999939 1,1 0 0 1 -0.999939,0.999939 1,1 0 0 1 -0.999939,-0.999939 1,1 0 0 1 0.999939,-0.999939 z" />
    <path
       id="rect1-2"
       style="fill:#000000;stroke-width:0.213314"
       d="m 0,11.368456 v 7.00009 2.999816 H 5.0002115 V 18.368546 H 13.00024 A 7,7 0 0 0 19.999813,11.39171 V 11.36846 H 13.00024 5.0002115 Z m 15.499829,1.999878 a 1,1 0 0 1 0.999939,0.999939 1,1 0 0 1 -0.999939,0.999939 1,1 0 0 1 -0.999939,-0.999939 1,1 0 0 1 0.999939,-0.999939 z" />
    <path
       id="rect1-27"
       style="fill:#000000;stroke-width:0.213314"
       d="m 0,22.889657 v 7.00009 2.999816 H 5.0002116 V 29.889747 H 13.00024 a 7,7 0 0 0 6.999573,-6.976836 v -0.02325 H 13.00024 5.0002116 Z m 15.499829,1.999878 a 1,1 0 0 1 0.999939,0.999939 1,1 0 0 1 -0.999939,0.999939 1,1 0 0 1 -0.999939,-0.999939 1,1 0 0 1 0.999939,-0.999939 z" />
  </g>
</svg>
