<?xml version="1.0" encoding="UTF-8" standalone="no"?>
<!-- Created with Inkscape (http://www.inkscape.org/) -->

<svg
   width="290mm"
   height="120mm"
   viewBox="0 0 290 120"
   version="1.1"
   id="svg1"
   inkscape:version="1.3 (0e150ed6c4, 2023-07-21)"
   sodipodi:docname="artefact 3.B dans la vago 4.0 (decoupe bois) part 2 (1).svg"
   xmlns:inkscape="http://www.inkscape.org/namespaces/inkscape"
   xmlns:sodipodi="http://sodipodi.sourceforge.net/DTD/sodipodi-0.dtd"
   xmlns:xlink="http://www.w3.org/1999/xlink"
   xmlns="http://www.w3.org/2000/svg"
   xmlns:svg="http://www.w3.org/2000/svg">
  <sodipodi:namedview
     id="namedview1"
     pagecolor="#ffffff"
     bordercolor="#111111"
     borderopacity="1"
     inkscape:showpageshadow="0"
     inkscape:pageopacity="0"
     inkscape:pagecheckerboard="1"
     inkscape:deskcolor="#d1d1d1"
     inkscape:document-units="mm"
     showguides="true"
     inkscape:zoom="1.4142136"
     inkscape:cx="235.46655"
     inkscape:cy="179.95867"
     inkscape:window-width="1366"
     inkscape:window-height="705"
     inkscape:window-x="-8"
     inkscape:window-y="-8"
     inkscape:window-maximized="1"
     inkscape:current-layer="layer1"
     showgrid="false" />
  <defs
     id="defs1">
    <clipPath
       clipPathUnits="userSpaceOnUse"
       id="clipPath16">
      <use
         x="0"
         y="0"
         xlink:href="#g15"
         id="use16" />
    </clipPath>
    <inkscape:path-effect
       effect="fill_between_many"
       method="originald"
       linkedpaths="#g16,0,1"
       id="path-effect9"
       is_visible="true"
       lpeversion="0"
       join="true"
       close="true"
       autoreverse="true" />
    <clipPath
       clipPathUnits="userSpaceOnUse"
       id="clipPath5">
      <g
         id="g6"
         transform="translate(1.2718286e-7,16.829525)">
        <g
           inkscape:label="Clip"
           id="use5"
           transform="translate(-1.2718286e-7,-16.829525)"
           clip-path="url(#clipPath5)">
          <g
             id="g7"
             transform="translate(0,-20.616168)">
            <path
               id="path6"
               style="stroke-width:0.282851"
               d="M 90.037956,76.202905 H 210.03796 V 156.20291 H 90.037956 Z M 77.500179,20.616168 V 50.616404 H 0 v 39.999623 50.000053 40.00014 h 77.500179 v 30.00024 H 90.000191 V 140.61608 H 210.0001 V 90.616027 H 90.000191 V 20.616168 Z" />
            <rect
               style="fill:#000000;stroke-width:0.264583"
               id="rect6"
               width="121.17258"
               height="62.269241"
               x="88.775742"
               y="88.355003" />
          </g>
        </g>
      </g>
    </clipPath>
  </defs>
  <g
     inkscape:label="Calque 1"
     inkscape:groupmode="layer"
     id="layer1">
    <circle
       id="path7"
       style="fill:#000000;stroke:none;stroke-width:0.264583"
       cx="198.13182"
       cy="78.190407"
       r="0.39687499" />
    <path
       inkscape:original-d="M 0,0"
       inkscape:path-effect="#path-effect9"
       d="M 0,0"
       id="path9" />
    <g
       id="g16"
       clip-path="url(#clipPath16)"
       transform="translate(0,-17.749668)">
      <g
         inkscape:label="Clip"
         id="g15" />
    </g>
    <rect
       style="fill:#000000;stroke-width:0.264583"
       id="rect10"
       width="77.5"
       x="75.139809"
       y="8.7003994"
       height="0" />
    <path
       id="rect14"
       style="fill:#000000;stroke-width:0.2618"
       d="M 0.81597087 -15.688448 C 0.80097088 -15.736248 0.80420244 -15.724319 0.80770264 -15.622819 C 0.81070263 -15.644719 0.81497087 -15.665948 0.81597087 -15.688448 z M 0.34416504 -15.582511 C 0.33256505 -15.58286 0.46338702 -15.549088 0.478007 -15.549438 C 0.477607 -15.549708 0.47729394 -15.55031 0.47697347 -15.550472 C 0.47897347 -15.551392 0.46796543 -15.555468 0.43356527 -15.567008 C 0.43270527 -15.567288 0.43335221 -15.567245 0.43253174 -15.567525 C 0.40293177 -15.572525 0.37386501 -15.578711 0.34416504 -15.582511 z M 2.7662394 -7.6543132 C 2.7582394 -7.6541932 2.7503515 -7.6512126 2.7419515 -7.6512126 C 2.7459515 -7.6512026 2.7509716 -7.6512226 2.7548706 -7.6512126 C 2.7588706 -7.6522126 2.7701394 -7.6543132 2.7662394 -7.6543132 z M 0.88315023 -5.674589 C 0.85825025 -5.676589 0.83323614 -5.6736959 0.80873617 -5.6683879 C 0.80473617 -5.6673879 0.79760177 -5.6596029 0.80150146 -5.6596029 L 0.80150146 -5.6590861 C 0.83770143 -5.6599761 0.87350529 -5.6660849 0.90950521 -5.6704549 C 0.90050522 -5.6714049 0.89215022 -5.673589 0.88315023 -5.674589 z M 2.2169189 -4.8069417 C 2.198219 -4.8009417 2.1783094 -4.7989385 2.1611084 -4.7898885 C 2.1487084 -4.7828885 2.1372349 -4.7745676 2.1249349 -4.7676676 C 2.1649349 -4.7798676 2.200619 -4.7931417 2.2169189 -4.8069417 z M 1.859318 -4.7986735 C 1.854318 -4.8141735 1.8500498 -4.7668144 1.8510498 -4.7506144 C 1.8519198 -4.7355744 1.855251 -4.7206659 1.857251 -4.7056559 C 1.862251 -4.7381759 1.867315 -4.7706935 1.859318 -4.7986735 z M 1.857251 -4.7056559 C 1.856861 -4.7033559 1.857651 -4.701238 1.857251 -4.698938 L 1.8582845 -4.698938 C 1.8580245 -4.701238 1.8575375 -4.7034559 1.857251 -4.7056559 z M 45.000354 0.14934489 L 45.000354 3.1491618 L 2.9998169 3.1491618 L 2.9998169 10.648962 L 0 10.648962 L 0 15.649174 L 2.9998169 15.649174 L 2.9998169 20.648869 L 0 20.648869 L 0 25.64908 L 2.9998169 25.64908 L 2.9998169 33.148881 L 119.99991 33.148881 L 119.99991 25.664583 L 122.99973 25.664583 L 122.99973 20.664372 L 119.99991 20.664372 L 119.99991 15.664677 L 122.99973 15.664677 L 122.99973 10.664465 L 119.99991 10.664465 L 119.99991 3.1491618 L 90.000191 3.1491618 L 90.000191 0.14934489 L 84.99998 0.14934489 L 84.99998 3.1491618 L 80.000285 3.1491618 L 80.000285 0.14934489 L 75.000073 0.14934489 L 75.000073 3.1491618 L 70.000378 3.1491618 L 70.000378 0.14934489 L 65.000167 0.14934489 L 65.000167 3.1491618 L 59.999955 3.1491618 L 59.999955 0.14934489 L 55.00026 0.14934489 L 55.00026 3.1491618 L 50.000049 3.1491618 L 50.000049 0.14934489 L 45.000354 0.14934489 z M 123.00024 2.9998169 L 123.00024 33.000053 L 125.00012 33.000053 L 125.00012 2.9998169 L 123.00024 2.9998169 z M 121.14144 41.012484 C 121.14168 41.014584 121.14223 41.016585 121.14248 41.018685 C 121.14283 41.016485 121.1421 41.014684 121.14248 41.012484 L 121.14144 41.012484 z M 121.14248 41.018685 C 121.13748 41.051385 121.13241 41.084089 121.14041 41.112219 C 121.14541 41.127719 121.14968 41.08036 121.14868 41.06416 C 121.1478 41.04894 121.14448 41.033855 121.14248 41.018685 z M 120.87479 41.081213 C 120.83479 41.093413 120.79911 41.106687 120.78281 41.120487 C 120.80151 41.114487 120.82194 41.112484 120.83914 41.103434 C 120.85154 41.096434 120.86239 41.088113 120.87479 41.081213 z M 122.19823 41.972632 C 122.16203 41.973522 122.12623 41.979631 122.09022 41.984001 C 122.09922 41.984951 122.10768 41.987135 122.11658 41.988135 C 122.14148 41.990135 122.16649 41.987775 122.19099 41.98245 C 122.19499 41.98145 122.20263 41.973149 122.19823 41.973149 L 122.19823 41.972632 z M 120.24486 43.964758 C 120.24086 43.965758 120.2301 43.967859 120.234 43.967859 C 120.242 43.967739 120.24938 43.964758 120.25778 43.964758 C 120.25378 43.964748 120.24876 43.964768 120.24486 43.964758 z M 122.52172 51.862984 C 122.52212 51.863254 122.52242 51.863822 122.52275 51.864018 C 122.52075 51.864938 122.53178 51.869014 122.56668 51.880554 C 122.56754 51.880834 122.56689 51.880791 122.56771 51.881071 C 122.59731 51.886071 122.62638 51.892257 122.65608 51.896057 C 122.66778 51.896407 122.53553 51.862384 122.52172 51.862984 z M 122.19202 51.936365 C 122.18902 51.958265 122.18476 51.979494 122.18376 52.001994 C 122.19876 52.049794 122.19502 52.037865 122.19202 51.936365 z " />
    <path
       id="rect14-5"
       style="fill:#000000;stroke-width:0.2618"
       d="m 1.1227234,18.446437 c -0.015,-0.0478 -0.01177,-0.03587 -0.0083,0.06563 0.003,-0.0219 0.0073,-0.04313 0.0083,-0.06563 z m -0.47180596,0.105937 c -0.0116,-3.49e-4 0.119222,0.03342 0.133842,0.03307 -4e-4,-2.7e-4 -7.13e-4,-8.72e-4 -0.001,-10e-4 0.002,-9.2e-4 -0.009,-0.005 -0.04341,-0.01654 -8.6e-4,-2.8e-4 -2.13e-4,-2.37e-4 -0.001,-5.17e-4 -0.0296,-0.005 -0.05867,-0.01119 -0.08837,-0.01499 z m 2.42207406,7.928198 c -0.008,1.2e-4 -0.01589,0.0031 -0.02429,0.0031 0.004,1e-5 0.009,-10e-6 0.01292,0 0.004,-10e-4 0.01527,-0.0031 0.01137,-0.0031 z m -1.8830891,1.979724 c -0.0249,-0.002 -0.04991,8.93e-4 -0.07441,0.0062 -0.004,0.001 -0.01113,0.0088 -0.0072,0.0088 v 5.17e-4 c 0.0362,-8.9e-4 0.072,-0.007 0.108004,-0.01137 -0.009,-9.5e-4 -0.01735,-0.0031 -0.02635,-0.0041 z m 1.3337691,0.867647 c -0.0187,0.006 -0.03861,0.008 -0.05581,0.01705 -0.0124,0.007 -0.02387,0.01532 -0.03617,0.02222 0.04,-0.0122 0.07568,-0.02547 0.09198,-0.03927 z m -0.357601,0.0083 c -0.005,-0.0155 -0.0093,0.03186 -0.0083,0.04806 8.7e-4,0.01504 0.0042,0.02995 0.0062,0.04496 0.005,-0.03252 0.01006,-0.06504 0.0021,-0.09302 z m -0.0021,0.09302 c -3.9e-4,0.0023 4e-4,0.0044 0,0.0067 h 10e-4 c -2.6e-4,-0.0023 -7.47e-4,-0.0045 -10e-4,-0.0067 z m 43.1431075,4.854999 v 2.999817 H 3.3065695 v 7.4998 H 0.30675244 v 5.000212 H 3.3065695 v 4.999691 H 0.30675244 v 5.00021 H 3.3065695 v 7.4998 H 120.30665 v -7.48429 h 2.99982 v -5.00022 h -2.99982 v -4.999688 h 2.99982 v -5.000212 h -2.99982 V 37.284079 H 90.306944 v -2.999817 h -5.00021 v 2.999817 h -4.999695 v -2.999817 h -5.000212 v 2.999817 h -4.999695 v -2.999817 h -5.000211 v 2.999817 H 60.306709 V 34.28423 h -4.999695 v 2.999817 H 50.306803 V 34.28423 Z m 77.999902,2.85044 v 30.00024 h 1.99988 v -30.00024 z m -1.8588,38.01267 c 2.4e-4,0.002 7.9e-4,0.004 0.001,0.006 3.5e-4,-0.002 -3.8e-4,-0.004 0,-0.006 z m 0.001,0.006 c -0.005,0.0327 -0.0101,0.0654 -0.002,0.0935 0.005,0.0155 0.009,-0.0319 0.008,-0.0481 -8.8e-4,-0.0152 -0.004,-0.0303 -0.006,-0.0455 z m -0.26769,0.0625 c -0.04,0.0122 -0.0757,0.0255 -0.092,0.0393 0.0187,-0.006 0.0391,-0.008 0.0563,-0.017 0.0124,-0.007 0.0233,-0.0153 0.0357,-0.0222 z m 1.32344,0.89142 c -0.0362,8.9e-4 -0.072,0.007 -0.10801,0.0114 0.009,9.5e-4 0.0175,0.003 0.0264,0.004 0.0249,0.002 0.0499,-3.6e-4 0.0744,-0.006 0.004,-0.001 0.0116,-0.009 0.007,-0.009 z m -1.95337,1.99212 c -0.004,0.001 -0.0148,0.003 -0.0109,0.003 0.008,-1.2e-4 0.0154,-0.003 0.0238,-0.003 -0.004,-1e-5 -0.009,1e-5 -0.0129,0 z m 2.27686,7.89823 c 4e-4,2.7e-4 7e-4,8.4e-4 0.001,0.001 -0.002,9.2e-4 0.009,0.005 0.0439,0.0165 8.6e-4,2.8e-4 2.1e-4,2.3e-4 10e-4,5.1e-4 0.0296,0.005 0.0587,0.0112 0.0884,0.015 0.0117,3.5e-4 -0.12055,-0.0337 -0.13436,-0.0331 z m -0.3297,0.0734 c -0.003,0.0219 -0.007,0.0431 -0.008,0.0656 0.015,0.0478 0.0113,0.0359 0.008,-0.0656 z" />
  </g>
</svg>
