<?xml version="1.0" encoding="UTF-8" standalone="no"?>
<!-- Created with Inkscape (http://www.inkscape.org/) -->

<svg
   width="290mm"
   height="290mm"
   viewBox="0 0 290 290"
   version="1.1"
   id="svg1"
   inkscape:version="1.3 (0e150ed6c4, 2023-07-21)"
   sodipodi:docname="artefact 3.B dans la vago 4.0 (decoupe bois) part 1.svg"
   xmlns:inkscape="http://www.inkscape.org/namespaces/inkscape"
   xmlns:sodipodi="http://sodipodi.sourceforge.net/DTD/sodipodi-0.dtd"
   xmlns:xlink="http://www.w3.org/1999/xlink"
   xmlns="http://www.w3.org/2000/svg"
   xmlns:svg="http://www.w3.org/2000/svg">
  <sodipodi:namedview
     id="namedview1"
     pagecolor="#ffffff"
     bordercolor="#111111"
     borderopacity="1"
     inkscape:showpageshadow="0"
     inkscape:pageopacity="0"
     inkscape:pagecheckerboard="1"
     inkscape:deskcolor="#d1d1d1"
     inkscape:document-units="mm"
     showguides="true"
     inkscape:zoom="0.25"
     inkscape:cx="212"
     inkscape:cy="546"
     inkscape:window-width="1366"
     inkscape:window-height="705"
     inkscape:window-x="-8"
     inkscape:window-y="-8"
     inkscape:window-maximized="1"
     inkscape:current-layer="g8"
     showgrid="false" />
  <defs
     id="defs1">
    <clipPath
       clipPathUnits="userSpaceOnUse"
       id="clipPath16">
      <use
         x="0"
         y="0"
         xlink:href="#g15"
         id="use16" />
    </clipPath>
    <inkscape:path-effect
       effect="fill_between_many"
       method="originald"
       linkedpaths="#g16,0,1|"
       id="path-effect9" />
    <clipPath
       clipPathUnits="userSpaceOnUse"
       id="clipPath5">
      <g
         id="g6"
         transform="translate(1.2718286e-7,16.829525)">
        <g
           inkscape:label="Clip"
           id="use5"
           transform="translate(-1.2718286e-7,-16.829525)"
           clip-path="url(#clipPath5)">
          <g
             id="g7"
             transform="translate(0,-20.616168)">
            <path
               id="path6"
               style="stroke-width:0.282851"
               d="M 90.037956,76.202905 H 210.03796 V 156.20291 H 90.037956 Z M 77.500179,20.616168 V 50.616404 H 0 v 39.999623 50.000053 40.00014 h 77.500179 v 30.00024 H 90.000191 V 140.61608 H 210.0001 V 90.616027 H 90.000191 V 20.616168 Z" />
            <rect
               style="fill:#000000;stroke-width:0.264583"
               id="rect6"
               width="121.17258"
               height="62.269241"
               x="88.775742"
               y="88.355003" />
          </g>
        </g>
      </g>
    </clipPath>
  </defs>
  <g
     inkscape:label="Calque 1"
     inkscape:groupmode="layer"
     id="layer1">
    <path
       inkscape:original-d="M 0,0"
       inkscape:path-effect="#path-effect9"
       d="M 0,0"
       id="path9" />
    <g
       id="g16"
       clip-path="url(#clipPath16)"
       transform="translate(0,-17.749668)">
      <g
         inkscape:label="Clip"
         id="g15" />
    </g>
    <rect
       style="fill:#000000;stroke-width:0.264583"
       id="rect10"
       width="77.5"
       x="75.139809"
       y="8.7003994" />
    <path
       id="rect16"
       style="stroke-width:0.287632"
       d="M 5.0002116 167.00014 L 5.0002116 169.99996 L 0 169.99996 L 0 279.99996 L 5.0002116 279.99996 L 5.0002116 282.99978 L 10.000423 282.99978 L 10.000423 279.99996 L 15.000118 279.99996 L 15.000118 282.99978 L 20.00033 282.99978 L 20.00033 279.99996 L 110 279.99996 L 110 282.99978 L 115.00022 282.99978 L 115.00022 279.99996 L 119.99991 279.99996 L 119.99991 282.99978 L 125.00012 282.99978 L 125.00012 279.99996 L 129.99982 279.99996 L 129.99982 169.99996 L 125.00012 169.99996 L 125.00012 167.00014 L 119.99991 167.00014 L 119.99991 169.99996 L 115.00022 169.99996 L 115.00022 167.00014 L 110 167.00014 L 110 169.99996 L 100.45433 169.99996 L 100.45433 199.99968 L 29.545483 199.99968 L 29.545483 169.99996 L 20.00033 169.99996 L 20.00033 167.00014 L 15.000118 167.00014 L 15.000118 169.99996 L 10.000423 169.99996 L 10.000423 167.00014 L 5.0002116 167.00014 z M 46.231287 167.34379 C 46.231637 167.33209 46.197614 167.46434 46.198214 167.47815 L 46.19873 167.47815 C 46.199 167.47775 46.199007 167.47745 46.199247 167.47712 C 46.200167 167.47912 46.204244 167.46809 46.215784 167.43319 C 46.216064 167.43233 46.21602 167.43298 46.2163 167.43216 C 46.2213 167.40256 46.227487 167.37349 46.231287 167.34379 z M 151.2316 167.34379 C 151.23195 167.33209 151.19792 167.46434 151.19852 167.47815 C 151.19879 167.47775 151.19936 167.47745 151.19956 167.47712 C 151.20048 167.47912 151.20459 167.46809 151.21609 167.43319 C 151.21637 167.43233 151.21633 167.43298 151.21661 167.43216 C 151.22161 167.40256 151.2278 167.37349 151.2316 167.34379 z M 36.308378 167.80113 L 36.308378 167.80164 C 36.309268 167.83784 36.315377 167.87364 36.319747 167.90965 C 36.320697 167.90065 36.322364 167.89168 36.323364 167.88278 C 36.325364 167.85788 36.323006 167.83286 36.31768 167.80836 C 36.31668 167.80436 36.308378 167.79723 36.308378 167.80113 z M 141.30869 167.80113 L 141.30817 167.80164 C 141.30906 167.83784 141.31514 167.87364 141.31954 167.90965 C 141.32049 167.90065 141.32267 167.89168 141.32367 167.88278 C 141.32567 167.85788 141.32258 167.83286 141.31747 167.80836 C 141.31647 167.80436 141.30869 167.79723 141.30869 167.80113 z M 46.360478 167.80474 C 46.350778 167.80422 46.322861 167.80533 46.272111 167.80733 C 46.294011 167.81033 46.31524 167.8146 46.33774 167.8156 C 46.36164 167.8086 46.370168 167.80534 46.360478 167.80474 z M 151.36079 167.80474 C 151.35079 167.80422 151.3227 167.80533 151.2719 167.80733 C 151.2938 167.81033 151.31503 167.8146 151.33753 167.8156 C 151.36143 167.8086 151.37039 167.80534 151.36079 167.80474 z M 35.39939 168.85119 C 35.3833 168.85212 35.367391 168.85488 35.351331 168.85688 C 35.385131 168.86288 35.418909 168.86694 35.447965 168.85894 C 35.463465 168.85394 35.41559 168.85019 35.39939 168.85119 z M 35.351331 168.85688 C 35.350231 168.8567 35.34933 168.85707 35.34823 168.85688 L 35.347713 168.85739 C 35.348913 168.85725 35.350131 168.85704 35.351331 168.85688 z M 140.3997 168.85119 C 140.3836 168.85212 140.36774 168.85488 140.35164 168.85688 C 140.38524 168.86288 140.41886 168.86694 140.44776 168.85894 C 140.46326 168.85394 140.4159 168.85019 140.3997 168.85119 z M 140.35164 168.85688 C 140.35064 168.85667 140.34951 168.8571 140.34751 168.85688 L 140.34751 168.85739 C 140.34851 168.85725 140.34964 168.85704 140.35164 168.85688 z M 35.41696 169.12456 C 35.42916 169.16456 35.442434 169.20024 35.456234 169.21654 C 35.450234 169.19784 35.447734 169.17742 35.438664 169.16022 C 35.431664 169.14782 35.42386 169.13686 35.41696 169.12456 z M 140.41675 169.12456 C 140.42895 169.16456 140.44223 169.20024 140.45603 169.21654 C 140.45003 169.19784 140.44807 169.17742 140.43897 169.16022 C 140.43197 169.14782 140.42365 169.13686 140.41675 169.12456 z M 38.300505 169.74158 C 38.300495 169.74558 38.300515 169.7506 38.300505 169.7545 C 38.301505 169.7585 38.303088 169.76925 38.303088 169.76535 C 38.302968 169.75735 38.300505 169.74998 38.300505 169.74158 z M 143.3003 169.74158 C 143.30029 169.74558 143.30031 169.7506 143.3003 169.7545 C 143.3013 169.7585 143.3034 169.76925 143.3034 169.76535 C 143.30328 169.75735 143.3003 169.74998 143.3003 169.74158 z M 9.9999064 178.99993 L 13.00024 178.99993 L 13.00024 184.00014 L 9.9999064 184.00014 L 9.9999064 178.99993 z M 117.00009 178.99993 L 119.99991 178.99993 L 119.99991 184.00014 L 117.00009 184.00014 L 117.00009 178.99993 z M 46.231287 280.34361 C 46.231637 280.33191 46.197614 280.46416 46.198214 280.47797 L 46.19873 280.47797 C 46.199 280.47757 46.199007 280.4773 46.199247 280.47694 C 46.200167 280.47894 46.204284 280.46791 46.215784 280.43301 C 46.216064 280.43215 46.21602 280.43283 46.2163 280.43198 C 46.2213 280.40238 46.227487 280.37331 46.231287 280.34361 z M 151.2316 280.34361 C 151.23195 280.33191 151.19792 280.46416 151.19852 280.47797 C 151.19879 280.47757 151.19932 280.4773 151.19956 280.47694 C 151.20048 280.47894 151.20459 280.46791 151.21609 280.43301 C 151.21637 280.43215 151.21633 280.43283 151.21661 280.43198 C 151.22161 280.40238 151.2278 280.37331 151.2316 280.34361 z M 36.308378 280.80146 C 36.309268 280.83766 36.315347 280.87347 36.319747 280.90947 C 36.320697 280.90047 36.322364 280.89201 36.323364 280.88311 C 36.325364 280.85821 36.32299 280.8332 36.31768 280.8087 C 36.31668 280.8047 36.308378 280.79726 36.308378 280.80146 z M 141.30817 280.80146 C 141.30906 280.83766 141.31514 280.87347 141.31954 280.90947 C 141.32049 280.90047 141.32267 280.89201 141.32367 280.88311 C 141.32567 280.85821 141.32278 280.8332 141.31747 280.8087 C 141.31647 280.8047 141.30869 280.79726 141.30869 280.80146 L 141.30817 280.80146 z M 46.360478 280.80508 C 46.35079 280.80456 46.322861 280.80607 46.272111 280.80767 C 46.294011 280.81067 46.31524 280.81493 46.33774 280.81593 C 46.36164 280.80843 46.370165 280.80561 46.360478 280.80508 z M 151.36079 280.80508 C 151.3511 280.80456 151.32265 280.80607 151.2719 280.80767 C 151.2938 280.81067 151.31503 280.81493 151.33753 280.81593 C 151.36143 280.80843 151.37047 280.80561 151.36079 280.80508 z M 35.39939 281.85101 C 35.384343 281.85188 35.369438 281.8551 35.354431 281.85721 C 35.387133 281.86262 35.419833 281.86725 35.447965 281.85928 C 35.463465 281.85428 35.41559 281.85001 35.39939 281.85101 z M 35.354431 281.85721 C 35.352264 281.85686 35.350399 281.85759 35.34823 281.85721 L 35.347713 281.85825 C 35.349966 281.85799 35.352184 281.85753 35.354431 281.85721 z M 140.3997 281.85101 C 140.38448 281.85189 140.3694 281.8551 140.35422 281.85721 C 140.38693 281.86262 140.41962 281.86725 140.44776 281.85928 C 140.46326 281.85428 140.4159 281.85001 140.3997 281.85101 z M 140.35422 281.85721 C 140.35206 281.85686 140.35019 281.85759 140.34802 281.85721 L 140.34802 281.85825 C 140.35011 281.85801 140.35215 281.8575 140.35422 281.85721 z M 35.41696 282.1249 C 35.42916 282.1649 35.442434 282.20058 35.456234 282.21688 C 35.450234 282.19818 35.447764 282.17772 35.438664 282.16056 C 35.431664 282.14816 35.42386 282.1372 35.41696 282.1249 z M 140.41675 282.1249 C 140.42895 282.1649 140.44223 282.20058 140.45603 282.21688 C 140.45003 282.19818 140.44807 282.17773 140.43897 282.16056 C 140.43197 282.14816 140.42365 282.1372 140.41675 282.1249 z M 38.300505 282.74191 C 38.300495 282.74591 38.300515 282.75093 38.300505 282.75483 C 38.301505 282.75883 38.303088 282.76959 38.303088 282.76569 C 38.302968 282.75769 38.300505 282.75031 38.300505 282.74191 z M 143.3003 282.74191 C 143.30029 282.74591 143.30031 282.75093 143.3003 282.75483 C 143.3013 282.75883 143.3034 282.76959 143.3034 282.76569 C 143.30328 282.75769 143.3003 282.75031 143.3003 282.74191 z " />
    <path
       id="path21"
       style="stroke-width:0.287433"
       d="M 150.00015 154.99984 L 150.00015 155.17968 L 150.00015 184.5045 L 150.00015 185.00008 L 150.00015 186.00002 L 179.99987 186.00002 L 179.99987 185.00008 L 180.00038 185.00008 L 180.00038 195.12452 L 180.00038 245.05584 L 180.00038 254.99994 L 179.99987 254.99994 L 179.99987 254 L 150.00015 254 L 150.00015 254.99994 L 150.00015 255.31568 L 150.00015 284.82034 L 150.00015 285.00017 L 190.00029 285.00017 L 190.00029 284.82034 L 260.00015 284.82034 L 260.00015 279.99996 L 262.99997 279.99996 L 262.99997 274.99975 L 260.00015 274.99975 L 260.00015 270.00006 L 262.99997 270.00006 L 262.99997 264.99985 L 260.00015 264.99985 L 260.00015 175.00017 L 262.99997 175.00017 L 262.99997 169.99996 L 260.00015 169.99996 L 260.00015 165.00026 L 262.99997 165.00026 L 262.99997 160.00005 L 260.00015 160.00005 L 260.00015 154.99984 L 150.00015 154.99984 z M 146.99981 160.00005 L 146.99981 165.00026 L 149.99963 165.00026 L 149.99963 160.00005 L 146.99981 160.00005 z M 146.99981 169.99996 L 146.99981 175.00017 L 149.99963 175.00017 L 149.99963 169.99996 L 146.99981 169.99996 z M 157.49995 179.99987 L 162.50016 179.99987 L 162.50016 182.99968 L 157.49995 182.99968 L 157.49995 179.99987 z M 167.49985 179.99987 L 172.50007 179.99987 L 172.50007 182.99968 L 167.49985 182.99968 L 167.49985 179.99987 z M 193.00062 181.50003 A 1.5 1.5 0 0 1 194.50079 183.0002 A 1.5 1.5 0 0 1 193.00062 184.50037 A 1.5 1.5 0 0 1 191.50046 183.0002 A 1.5 1.5 0 0 1 193.00062 181.50003 z M 242.00073 181.50003 A 1.5 1.5 0 0 1 243.5009 183.0002 A 1.5 1.5 0 0 1 242.00073 184.50037 A 1.5 1.5 0 0 1 240.50057 183.0002 A 1.5 1.5 0 0 1 242.00073 181.50003 z M 198.73051 182.35011 C 198.72654 182.37765 198.7212 182.40475 198.71655 182.43228 C 198.71627 182.43313 198.71632 182.43248 198.71604 182.43331 C 198.70454 182.46821 198.7004 182.47923 198.6995 182.47723 C 198.69926 182.47759 198.69871 182.47791 198.69847 182.47827 C 198.69789 182.4651 198.72791 182.35109 198.73051 182.35011 z M 188.80863 182.80176 C 188.80863 182.79776 188.81693 182.805 188.81793 182.809 C 188.82293 182.8335 188.82562 182.85851 188.82362 182.88341 C 188.82262 182.89241 188.821 182.90077 188.82 182.90977 C 188.816 182.87377 188.80953 182.83796 188.80863 182.80176 z M 198.86073 182.80538 C 198.87073 182.80591 198.86143 182.80833 198.83748 182.81623 C 198.81498 182.81523 198.79375 182.81096 198.77185 182.80796 C 198.82265 182.80596 198.85103 182.80538 198.86073 182.80538 z M 187.89964 183.85183 L 187.90016 183.85183 C 187.91683 183.85094 187.96304 183.85463 187.9477 183.85958 C 187.9197 183.86758 187.88718 183.86251 187.85468 183.85751 C 187.85268 183.85783 187.85097 183.85832 187.84797 183.85854 L 187.84797 183.85751 C 187.84997 183.85792 187.85168 183.85713 187.85468 183.85751 C 187.86952 183.85553 187.88472 183.85286 187.89964 183.85183 z M 187.9167 184.1252 C 187.9237 184.1375 187.93192 184.14897 187.93892 184.16137 C 187.94792 184.17857 187.95049 184.199 187.95649 184.2177 C 187.94269 184.2014 187.9289 184.1652 187.9167 184.1252 z M 190.80024 184.74273 C 190.80024 184.75073 190.80334 184.7585 190.80334 184.7665 C 190.80334 184.7705 190.80124 184.75953 190.80024 184.75513 C 190.80025 184.75113 190.80023 184.74713 190.80024 184.74273 z M 195.0005 185.00059 L 240.00034 185.00059 L 240.00034 193.86879 L 240.09542 193.86879 L 240.09542 239.72904 L 240.00034 239.72904 L 240.00034 255.00046 L 195.0005 255.00046 L 195.0005 248.71092 L 192.00017 248.71092 L 192.00017 243.71122 L 195.0005 243.71122 L 195.0005 225.00074 L 195.09559 225.00074 L 195.09559 214.9998 L 195.0005 214.9998 L 195.0005 194.99998 L 192.00017 194.99998 L 192.00017 189.99977 L 195.0005 189.99977 L 195.0005 185.00059 z M 261.14168 190.34807 C 261.14194 190.35033 261.1424 190.35254 261.14272 190.35479 C 261.1431 190.35244 261.14231 190.35042 261.14272 190.34807 L 261.14168 190.34807 z M 261.14272 190.35479 C 261.13736 190.38731 261.13272 190.41983 261.14065 190.44781 C 261.14565 190.46331 261.1494 190.41595 261.1484 190.39975 C 261.14753 190.3847 261.14484 190.36979 261.14272 190.35479 z M 148.14135 190.34859 C 148.14159 190.35059 148.14212 190.35227 148.14238 190.35427 C 148.14274 190.35227 148.14201 190.35059 148.14238 190.34859 L 148.14135 190.34859 z M 148.14238 190.35427 C 148.13738 190.38697 148.13283 190.41971 148.14083 190.44781 C 148.14583 190.46331 148.14958 190.41595 148.14858 190.39975 C 148.1477 190.38455 148.14438 190.36947 148.14238 190.35427 z M 147.87469 190.4168 C 147.83469 190.429 147.79901 190.44228 147.78271 190.45608 C 147.80141 190.45008 147.82184 190.44812 147.83904 190.43902 C 147.85144 190.43202 147.86239 190.4237 147.87469 190.4168 z M 260.87503 190.4168 C 260.83503 190.429 260.79935 190.44228 260.78305 190.45608 C 260.80175 190.45008 260.82218 190.44812 260.83938 190.43902 C 260.85178 190.43202 260.86273 190.4237 260.87503 190.4168 z M 149.19813 191.30822 C 149.16193 191.30911 149.12612 191.31519 149.09012 191.31959 C 149.09912 191.32054 149.10758 191.32272 149.11648 191.32372 C 149.14138 191.32572 149.16639 191.32315 149.19089 191.31804 C 149.19489 191.31704 149.20253 191.30874 149.19813 191.30874 L 149.19813 191.30822 z M 262.19847 191.30822 C 262.16227 191.30911 262.12646 191.31519 262.09046 191.31959 C 262.09946 191.32054 262.10792 191.32272 262.11682 191.32372 C 262.14172 191.32572 262.16673 191.32283 262.19123 191.31752 C 262.19523 191.31652 262.20215 191.30874 262.19795 191.30874 L 262.19847 191.30822 z M 147.24476 193.30035 C 147.24076 193.30135 147.23011 193.30345 147.23391 193.30345 C 147.24191 193.30333 147.24928 193.30035 147.25768 193.30035 C 147.25368 193.30034 147.24866 193.30036 147.24476 193.30035 z M 260.2451 193.30035 C 260.2411 193.30135 260.23034 193.30345 260.23424 193.30345 C 260.24224 193.30333 260.24962 193.30035 260.25802 193.30035 C 260.25402 193.30034 260.249 193.30036 260.2451 193.30035 z M 149.52162 201.19857 C 149.52202 201.19884 149.52233 201.19941 149.52266 201.19961 C 149.52066 201.20053 149.53168 201.20464 149.56658 201.21614 C 149.56744 201.21642 149.56679 201.21638 149.56761 201.21666 C 149.59721 201.22166 149.62628 201.22784 149.65598 201.23164 C 149.66768 201.23199 149.53543 201.19797 149.52162 201.19857 z M 262.52196 201.19857 C 262.52236 201.19884 262.52263 201.19937 262.52299 201.19961 C 262.52099 201.20053 262.53202 201.20464 262.56692 201.21614 C 262.56778 201.21642 262.5671 201.21638 262.56795 201.21666 C 262.59755 201.22166 262.62662 201.22784 262.65632 201.23164 C 262.66802 201.23199 262.53577 201.19797 262.52196 201.19857 z M 149.19193 201.27195 C 149.18893 201.29385 149.18518 201.31508 149.18418 201.33758 C 149.19918 201.38538 149.19493 201.37345 149.19193 201.27195 z M 262.19226 201.27195 C 262.18926 201.29385 262.185 201.31508 262.184 201.33758 C 262.199 201.38538 262.19546 201.37345 262.19226 201.27195 z M 198.73051 255.34979 C 198.72654 255.37733 198.7212 255.40443 198.71655 255.43195 C 198.71627 255.4328 198.71632 255.43217 198.71604 255.43299 C 198.70454 255.46789 198.7004 255.47891 198.6995 255.47691 C 198.69926 255.47727 198.69871 255.47759 198.69847 255.47795 C 198.69789 255.46478 198.72791 255.35077 198.73051 255.34979 z M 193.00062 255.50017 A 1.5 1.5 0 0 1 194.50079 257.00033 A 1.5 1.5 0 0 1 193.00062 258.5005 A 1.5 1.5 0 0 1 191.50046 257.00033 A 1.5 1.5 0 0 1 193.00062 255.50017 z M 242.00073 255.50017 A 1.5 1.5 0 0 1 243.5009 257.00033 A 1.5 1.5 0 0 1 242.00073 258.5005 A 1.5 1.5 0 0 1 240.50057 257.00033 A 1.5 1.5 0 0 1 242.00073 255.50017 z M 188.80863 255.80196 C 188.80863 255.79796 188.81693 255.80519 188.81793 255.80919 C 188.82293 255.83369 188.82562 255.85871 188.82362 255.88361 C 188.82262 255.89261 188.821 255.90096 188.82 255.90996 C 188.816 255.87396 188.80953 255.83816 188.80863 255.80196 z M 198.86073 255.80557 C 198.87073 255.80609 198.86143 255.80853 198.83748 255.81643 C 198.81498 255.81543 198.79375 255.81168 198.77185 255.80868 C 198.82265 255.80668 198.85103 255.80557 198.86073 255.80557 z M 187.89964 256.85202 L 187.90016 256.85202 C 187.91682 256.85114 187.96304 256.85534 187.9477 256.86029 C 187.9197 256.86829 187.8877 256.86322 187.8552 256.85822 C 187.8532 256.85854 187.85097 256.85903 187.84797 256.85926 L 187.84797 256.85822 C 187.84997 256.85862 187.8522 256.85783 187.8552 256.85822 C 187.87003 256.85625 187.88472 256.85306 187.89964 256.85202 z M 157.49995 256.99982 L 162.50016 256.99982 L 162.50016 259.99963 L 157.49995 259.99963 L 157.49995 256.99982 z M 167.49985 256.99982 L 172.50007 256.99982 L 172.50007 259.99963 L 167.49985 259.99963 L 167.49985 256.99982 z M 187.9167 257.12539 C 187.9237 257.13769 187.93192 257.14865 187.93892 257.16105 C 187.94792 257.17825 187.95049 257.19867 187.95649 257.21737 C 187.94269 257.20107 187.9289 257.16539 187.9167 257.12539 z M 190.80024 257.74241 C 190.80024 257.75041 190.80334 257.75818 190.80334 257.76618 C 190.80334 257.77018 190.80124 257.75923 190.80024 257.75533 C 190.80025 257.75133 190.80023 257.74631 190.80024 257.74241 z M 146.99981 265.00036 L 146.99981 270.00057 L 149.99963 270.00057 L 149.99963 265.00036 L 146.99981 265.00036 z M 146.99981 275.00027 L 146.99981 280.00048 L 149.99963 280.00048 L 149.99963 275.00027 L 146.99981 275.00027 z M 261.14168 295.34786 C 261.14194 295.35012 261.1424 295.35233 261.14272 295.35458 C 261.1431 295.35223 261.14231 295.35021 261.14272 295.34786 L 261.14168 295.34786 z M 261.14272 295.35458 C 261.13736 295.3871 261.13272 295.41962 261.14065 295.4476 C 261.14565 295.4631 261.1494 295.41574 261.1484 295.39954 C 261.14753 295.3845 261.14484 295.36959 261.14272 295.35458 z M 148.14135 295.34838 C 148.14157 295.35022 148.14211 295.35223 148.14238 295.35406 C 148.14256 295.35223 148.14204 295.35021 148.14238 295.34838 L 148.14135 295.34838 z M 148.14238 295.35458 C 148.13738 295.38728 148.13283 295.42002 148.14083 295.44812 C 148.14583 295.46362 148.14958 295.41626 148.14858 295.40006 C 148.14771 295.38502 148.14438 295.36961 148.14238 295.35458 z M 260.87503 295.41659 C 260.83503 295.42879 260.79935 295.44207 260.78305 295.45587 C 260.80175 295.44987 260.82218 295.44791 260.83938 295.43881 C 260.85178 295.43181 260.86273 295.42349 260.87503 295.41659 z M 147.87469 295.41711 C 147.83469 295.42931 147.79901 295.44258 147.78271 295.45638 C 147.80141 295.45038 147.82184 295.44843 147.83904 295.43933 C 147.85144 295.43233 147.86239 295.42401 147.87469 295.41711 z M 262.19847 296.30801 C 262.16227 296.3089 262.12646 296.31498 262.09046 296.31938 C 262.09946 296.32033 262.10792 296.32251 262.11682 296.32351 C 262.14172 296.32551 262.16673 296.32262 262.19123 296.31731 C 262.19523 296.31631 262.20215 296.30853 262.19795 296.30853 L 262.19847 296.30801 z M 149.19813 296.30853 C 149.16193 296.30942 149.12612 296.3155 149.09012 296.3199 C 149.09912 296.32085 149.10758 296.32251 149.11648 296.32351 C 149.14138 296.32551 149.16639 296.32294 149.19089 296.31783 C 149.19489 296.31683 149.20253 296.30853 149.19813 296.30853 z M 260.2451 298.30014 C 260.2411 298.30114 260.23034 298.30324 260.23424 298.30324 C 260.24224 298.30312 260.24962 298.30014 260.25802 298.30014 C 260.25402 298.30013 260.249 298.30015 260.2451 298.30014 z M 147.24476 298.30066 C 147.24076 298.30166 147.23011 298.30324 147.23391 298.30324 C 147.24191 298.30312 147.24928 298.30066 147.25768 298.30066 C 147.25368 298.30065 147.24866 298.30067 147.24476 298.30066 z M 149.52162 306.19836 L 149.52162 306.19888 C 149.52202 306.19915 149.52233 306.19971 149.52266 306.19991 C 149.52066 306.20083 149.53168 306.20443 149.56658 306.21593 C 149.56744 306.21621 149.56679 306.21669 149.56761 306.21697 C 149.59721 306.22197 149.62628 306.22815 149.65598 306.23195 C 149.66768 306.2323 149.53543 306.19776 149.52162 306.19836 z M 262.52196 306.19836 C 262.52236 306.19863 262.52263 306.19916 262.52299 306.1994 C 262.52099 306.20032 262.53202 306.20443 262.56692 306.21593 C 262.56778 306.21621 262.5671 306.21617 262.56795 306.21645 C 262.59755 306.22145 262.62662 306.22764 262.65632 306.23144 C 262.66802 306.23179 262.53577 306.19776 262.52196 306.19836 z M 262.19226 306.27174 C 262.18926 306.29364 262.185 306.31487 262.184 306.33737 C 262.199 306.38517 262.19546 306.37324 262.19226 306.27174 z M 149.19193 306.27226 C 149.18893 306.29416 149.18518 306.31539 149.18418 306.33789 C 149.19918 306.38569 149.19493 306.37376 149.19193 306.27226 z " />
    <path
       id="rect18"
       style="stroke-width:0.244955"
       d="M 225.00022 8.0000285 L 225.00022 13.00024 L 225.00022 13.000757 L 225.00074 13.000757 L 225.00074 18.000452 L 225.00022 18.000452 L 225.00022 134.00009 L 225.00022 134.00061 L 225.00022 136.99991 L 285.00017 136.99991 L 285.00017 134.00009 L 284.99966 134.00009 L 284.99966 119.70897 C 284.90606 118.77271 284.94856 117.82876 284.99966 116.88641 L 284.99966 18.000452 L 284.99966 13.000757 L 284.99966 13.00024 L 285.00017 13.00024 L 285.00017 8.0000285 L 279.99996 8.0000285 L 279.99996 13.00024 L 229.99991 13.00024 L 229.99991 8.0000285 L 225.00022 8.0000285 z M 230.00095 13.000757 L 280.00048 13.000757 L 280.00048 113.00085 L 230.00095 113.00085 L 230.00095 13.000757 z M 289.99987 13.913879 L 289.99987 18.000452 L 290.00039 18.000452 L 290.00039 13.915946 C 290.00027 13.915385 290.00001 13.914446 289.99987 13.913879 z M 253.55972 121.00088 L 256.56005 121.00088 L 256.56005 126.00058 L 253.55972 126.00058 L 253.55972 121.00088 z M 232.50002 131.00027 L 237.50023 131.00027 L 237.50023 134.00009 L 232.50002 134.00009 L 232.50002 131.00027 z M 242.49993 131.00027 L 247.50014 131.00027 L 247.50014 134.00009 L 242.49993 134.00009 L 242.49993 131.00027 z M 252.49983 131.00027 L 257.50004 131.00027 L 257.50004 134.00009 L 252.49983 134.00009 L 252.49983 131.00027 z M 262.50026 131.00027 L 267.49995 131.00027 L 267.49995 134.00009 L 262.50026 134.00009 L 262.50026 131.00027 z M 272.50016 131.00027 L 277.49986 131.00027 L 277.49986 134.00009 L 272.50016 134.00009 L 272.50016 131.00027 z " />
    <path
       id="path20"
       style="stroke-width:0.25227"
       d="M 225.00022 3.9997559 L 225.00022 7.0000895 L 229.99991 7.0000895 L 229.99991 107.00019 L 279.99996 107.00019 L 279.99996 7.0000895 L 285.00017 7.0000895 L 285.00017 3.9997559 L 225.00022 3.9997559 z M 251.05961 100.0001 L 254.05994 100.0001 L 254.05994 104.99979 L 251.05961 104.99979 L 251.05961 100.0001 z M 257.05976 100.0001 L 260.0601 100.0001 L 260.0601 104.99979 L 257.05976 104.99979 L 257.05976 100.0001 z " />
    <g
       id="g8"
       inkscape:groupmode="layer">
      <path
         id="path4"
         style="stroke-width:0.313808"
         d="M 77.500179 0 L 77.500179 30.000236 L 40.000142 30.000236 L 40.000142 33.000053 L 33.999992 33.000053 L 33.999992 30.000236 L 0 30.000236 L 0 69.999862 L 0 119.99991 L 0 160.00005 L 33.999992 160.00005 L 33.999992 157.00024 L 40.000142 157.00024 L 40.000142 160.00005 L 77.500179 160.00005 L 77.500179 190.00029 L 90.000191 190.00029 L 90.000191 155.99978 L 90.000191 155.00036 L 90.000191 150.00015 L 90.000191 145.00045 L 90.000191 140.00024 L 90.000191 137.58023 L 210.0001 137.58023 L 210.0001 137.58747 L 211.99998 137.58747 L 211.99998 53.58691 L 210.0001 53.58691 L 90.000191 53.58691 L 90.000191 50.000049 L 90.000191 44.999837 L 90.000191 40.000142 L 90.000191 34.999931 L 90.000191 0 L 77.500179 0 z M 2.9998169 34.999931 L 5.9996338 34.999931 L 5.9996338 40.000142 L 2.9998169 40.000142 L 2.9998169 34.999931 z M 84.000041 34.999931 L 87.000374 34.999931 L 87.000374 40.000142 L 84.000041 40.000142 L 84.000041 34.999931 z M 2.9998169 44.999837 L 5.9996338 44.999837 L 5.9996338 50.000049 L 2.9998169 50.000049 L 2.9998169 44.999837 z M 84.000041 44.999837 L 87.000374 44.999837 L 87.000374 50.000049 L 84.000041 50.000049 L 84.000041 44.999837 z M 33.999992 49.00011 L 40.000142 49.00011 L 40.000142 51.999927 L 33.999992 51.999927 L 33.999992 49.00011 z M 90.000191 55.586788 L 90.037915 55.586788 L 90.037915 56.000199 L 90.000191 56.000199 L 90.000191 55.586788 z M 119.99991 55.586788 L 125.00012 55.586788 L 125.00012 58.586605 L 119.99991 58.586605 L 119.99991 55.586788 z M 129.99982 55.586788 L 135.00003 55.586788 L 135.00003 58.586605 L 129.99982 58.586605 L 129.99982 55.586788 z M 139.99972 55.586788 L 144.99993 55.586788 L 144.99993 58.586605 L 139.99972 58.586605 L 139.99972 55.586788 z M 150.00015 55.586788 L 154.99984 55.586788 L 154.99984 58.586605 L 150.00015 58.586605 L 150.00015 55.586788 z M 160.00005 55.586788 L 164.99975 55.586788 L 164.99975 58.586605 L 160.00005 58.586605 L 160.00005 55.586788 z M 27.250016 58.587122 A 1.25 1.25 0 0 1 28.500069 59.837174 A 1.25 1.25 0 0 1 27.250016 61.087227 A 1.25 1.25 0 0 1 25.999963 59.837174 A 1.25 1.25 0 0 1 27.250016 58.587122 z M 82.24976 58.587122 A 1.25 1.25 0 0 1 83.499813 59.837174 A 1.25 1.25 0 0 1 82.24976 61.087227 A 1.25 1.25 0 0 1 80.999707 59.837174 A 1.25 1.25 0 0 1 82.24976 58.587122 z M 4.1413493 65.347949 L 4.1423828 65.347949 C 4.1420098 65.350149 4.1427418 65.35195 4.1423828 65.35415 C 4.1444828 65.36933 4.147684 65.384406 4.148584 65.399626 C 4.149584 65.415826 4.1453158 65.463185 4.1403158 65.447685 C 4.1323158 65.419545 4.1369828 65.38686 4.1423828 65.35415 C 4.1420928 65.35205 4.1415538 65.350049 4.1413493 65.347949 z M 88.14139 65.347949 L 88.142424 65.347949 C 88.142051 65.350149 88.142782 65.35195 88.142424 65.35415 C 88.144524 65.36933 88.147725 65.384406 88.148625 65.399626 C 88.149625 65.415826 88.145356 65.463185 88.140356 65.447685 C 88.132356 65.419545 88.137024 65.38686 88.142424 65.35415 C 88.142133 65.35205 88.141563 65.350049 88.14139 65.347949 z M 3.8746989 65.416679 C 3.8623989 65.423579 3.8514409 65.4319 3.8390422 65.4389 C 3.8218422 65.448 3.8014148 65.449953 3.7827148 65.455953 C 3.7990148 65.442153 3.8346989 65.428879 3.8746989 65.416679 z M 87.87474 65.416679 C 87.86244 65.423579 87.851483 65.4319 87.839083 65.4389 C 87.821883 65.448 87.801456 65.449953 87.782756 65.455953 C 87.799056 65.442153 87.83474 65.428879 87.87474 65.416679 z M 5.1981323 66.308097 L 5.1981323 66.308614 C 5.2023323 66.308614 5.1948976 66.316399 5.1908976 66.317399 C 5.1663976 66.322699 5.1413823 66.3256 5.1164836 66.3236 C 5.1075836 66.3226 5.0991286 66.320366 5.0901286 66.319466 C 5.1261273 66.315066 5.1619299 66.308987 5.1981323 66.308097 z M 89.198173 66.308097 L 89.198173 66.308614 C 89.202373 66.308614 89.194938 66.316399 89.190938 66.317399 C 89.166438 66.322699 89.141424 66.3256 89.116524 66.3236 C 89.107624 66.3226 89.099169 66.320366 89.090169 66.319466 C 89.126169 66.315066 89.161969 66.308987 89.198173 66.308097 z M 3.2447632 68.300224 C 3.2486632 68.300234 3.2536633 68.300214 3.2576823 68.300224 C 3.2492823 68.300224 3.2419111 68.303224 3.2339111 68.303324 C 3.2300111 68.303324 3.2408112 68.301224 3.2447632 68.300224 z M 87.244804 68.300224 C 87.248704 68.300234 87.253703 68.300214 87.257723 68.300224 C 87.249323 68.300224 87.241952 68.303224 87.233952 68.303324 C 87.230052 68.303324 87.240854 68.301224 87.244804 68.300224 z M 206.99977 73.087012 L 209.99958 73.087012 L 209.99958 78.087223 L 206.99977 78.087223 L 206.99977 73.087012 z M 191.49994 75.499784 A 1.5 1.5 0 0 1 192.99959 76.999951 A 1.5 1.5 0 0 1 191.49994 78.499601 A 1.5 1.5 0 0 1 189.99977 76.999951 A 1.5 1.5 0 0 1 191.49994 75.499784 z M 5.5216268 76.19845 C 5.5354368 76.19785 5.6676855 76.231873 5.6559855 76.231523 C 5.6262855 76.227723 5.5972188 76.221526 5.5676188 76.216536 C 5.5667688 76.216256 5.5674088 76.2163 5.5665853 76.21602 C 5.5316853 76.20452 5.5206703 76.200403 5.5226603 76.199483 C 5.5223003 76.199243 5.5219893 76.198654 5.5216268 76.19845 z M 89.521667 76.19845 C 89.535477 76.19785 89.667726 76.231873 89.656026 76.231523 C 89.626326 76.227723 89.597247 76.221526 89.56766 76.216536 C 89.56681 76.216256 89.567418 76.2163 89.566626 76.21602 C 89.531726 76.20452 89.520691 76.200403 89.522701 76.199483 C 89.522341 76.199243 89.521999 76.198654 89.521667 76.19845 z M 131.49998 81.499935 A 1.5 1.5 0 0 1 132.99963 83.000102 A 1.5 1.5 0 0 1 131.49998 84.499752 A 1.5 1.5 0 0 1 129.99982 83.000102 A 1.5 1.5 0 0 1 131.49998 81.499935 z M 171.49961 81.499935 A 1.5 1.5 0 0 1 172.99978 83.000102 A 1.5 1.5 0 0 1 171.49961 84.499752 A 1.5 1.5 0 0 1 169.99996 83.000102 A 1.5 1.5 0 0 1 171.49961 81.499935 z M 206.99977 83.086918 L 209.99958 83.086918 L 209.99958 88.08713 L 206.99977 88.08713 L 206.99977 83.086918 z M 206.99977 93.086825 L 209.99958 93.086825 L 209.99958 98.087036 L 206.99977 98.087036 L 206.99977 93.086825 z M 206.99977 103.08725 L 209.99958 103.08725 L 209.99958 108.08694 L 206.99977 108.08694 L 206.99977 103.08725 z M 27.250016 104.5869 A 1.25 1.25 0 0 1 28.500069 105.83695 A 1.25 1.25 0 0 1 27.250016 107.087 A 1.25 1.25 0 0 1 25.999963 105.83695 A 1.25 1.25 0 0 1 27.250016 104.5869 z M 82.24976 104.5869 A 1.25 1.25 0 0 1 83.499813 105.83695 A 1.25 1.25 0 0 1 82.24976 107.087 A 1.25 1.25 0 0 1 80.999707 105.83695 A 1.25 1.25 0 0 1 82.24976 104.5869 z M 131.49998 107.00019 A 1.5 1.5 0 0 1 132.99963 108.49984 A 1.5 1.5 0 0 1 131.49998 110 A 1.5 1.5 0 0 1 129.99982 108.49984 A 1.5 1.5 0 0 1 131.49998 107.00019 z M 171.49961 107.00019 A 1.5 1.5 0 0 1 172.99978 108.49984 A 1.5 1.5 0 0 1 171.49961 110 A 1.5 1.5 0 0 1 169.99996 108.49984 A 1.5 1.5 0 0 1 171.49961 107.00019 z M 191.49994 112.49959 A 1.5 1.5 0 0 1 192.99959 113.99976 A 1.5 1.5 0 0 1 191.49994 115.49993 A 1.5 1.5 0 0 1 189.99977 113.99976 A 1.5 1.5 0 0 1 191.49994 112.49959 z M 206.99977 113.08715 L 209.99958 113.08715 L 209.99958 118.08685 L 206.99977 118.08685 L 206.99977 113.08715 z M 119.99991 132.58984 L 125.00012 132.58984 L 125.00012 135.57984 L 119.99991 135.57984 L 119.99991 132.58984 z M 129.99982 132.58984 L 135.00003 132.58984 L 135.00003 135.57984 L 129.99982 135.57984 L 129.99982 132.58984 z M 139.99972 132.58984 L 144.99993 132.58984 L 144.99993 135.57984 L 139.99972 135.57984 L 139.99972 132.58984 z M 150.00015 132.58984 L 154.99984 132.58984 L 154.99984 135.57984 L 150.00015 135.57984 L 150.00015 132.58984 z M 160.00005 132.58984 L 164.99975 132.58984 L 164.99975 135.57984 L 160.00005 135.57984 L 160.00005 132.58984 z M 90.000191 135.54987 L 90.037915 135.54987 L 90.037915 135.57984 L 90.000191 135.57984 L 90.000191 135.54987 z M 33.999992 137.99985 L 40.000142 137.99985 L 40.000142 141.00018 L 33.999992 141.00018 L 33.999992 137.99985 z M 2.9998169 140.00024 L 5.9996338 140.00024 L 5.9996338 145.00045 L 2.9998169 145.00045 L 2.9998169 140.00024 z M 84.000041 140.00024 L 87.000374 140.00024 L 87.000374 145.00045 L 84.000041 145.00045 L 84.000041 140.00024 z M 2.9998169 150.00015 L 5.9996338 150.00015 L 5.9996338 155.00036 L 2.9998169 155.00036 L 2.9998169 150.00015 z M 84.000041 150.00015 L 87.000374 150.00015 L 87.000374 155.00036 L 84.000041 155.00036 L 84.000041 150.00015 z M 86.999858 155.99978 L 89.999674 155.99978 L 89.999674 156.0003 L 86.999858 156.0003 L 86.999858 155.99978 z M 88.14139 171.34768 L 88.142424 171.3482 C 88.142051 171.3502 88.142782 171.3524 88.142424 171.3544 C 88.144524 171.3694 88.147725 171.38477 88.148625 171.39987 C 88.149625 171.41607 88.145356 171.46343 88.140356 171.44793 C 88.132356 171.41983 88.137024 171.3871 88.142424 171.3544 C 88.142151 171.35254 88.141616 171.35035 88.14139 171.34768 z M 87.87474 171.41693 C 87.86244 171.42393 87.851483 171.43215 87.839083 171.43915 C 87.821883 171.44815 87.801456 171.4502 87.782756 171.4562 C 87.799056 171.4424 87.83474 171.42913 87.87474 171.41693 z M 89.198173 172.30783 L 89.198173 172.30835 C 89.202373 172.30835 89.194938 172.31613 89.190938 172.31713 C 89.166438 172.32213 89.141424 172.32533 89.116524 172.32333 C 89.107624 172.32233 89.099169 172.3202 89.090169 172.3192 C 89.126169 172.3152 89.161969 172.30873 89.198173 172.30783 z M 87.244804 174.30047 C 87.248704 174.30048 87.253703 174.30046 87.257723 174.30047 C 87.249323 174.30047 87.241952 174.30257 87.233952 174.30357 C 87.230052 174.30357 87.240854 174.30147 87.244804 174.30047 z M 89.521667 182.19818 C 89.535477 182.19758 89.667726 182.23155 89.656026 182.23125 C 89.626326 182.22725 89.597247 182.22127 89.56766 182.21627 C 89.56681 182.21599 89.567418 182.21603 89.566626 182.21575 C 89.531726 182.20425 89.520691 182.20063 89.522701 182.19973 C 89.522341 182.19949 89.521999 182.19891 89.521667 182.1987 L 89.521667 182.19818 z " />
    </g>
    <path
       id="rect12"
       style="fill:#000000;fill-opacity:0.639216;stroke-width:0.264583"
       d="M 119.90638 14.000179 L 119.90638 15.000118 L 119.90638 40.000142 L 117.9065 40.000142 L 117.9065 44.999837 L 119.90638 44.999837 L 125.90653 44.999837 L 127.9064 44.999837 L 127.9064 40.000142 L 125.90653 40.000142 L 125.90653 15.000118 L 125.90653 14.000179 L 119.90638 14.000179 z M 122.9403 15.499829 A 1.5 1.5 0 0 1 124.43995 16.999996 A 1.5 1.5 0 0 1 122.9403 18.500163 A 1.5 1.5 0 0 1 121.44013 16.999996 A 1.5 1.5 0 0 1 122.9403 15.499829 z M 122.9403 33.000053 A 1.5 1.5 0 0 1 124.43995 34.50022 A 1.5 1.5 0 0 1 122.9403 35.99987 A 1.5 1.5 0 0 1 121.44013 34.50022 A 1.5 1.5 0 0 1 122.9403 33.000053 z M 122.90671 40.749967 A 1.5 1.5 0 0 1 124.40636 42.250134 A 1.5 1.5 0 0 1 122.90671 43.749784 A 1.5 1.5 0 0 1 121.40654 42.250134 A 1.5 1.5 0 0 1 122.90671 40.749967 z " />
    <path
       id="rect12-0"
       style="fill:#000000;fill-opacity:0.639216;stroke-width:0.264583"
       d="m 132.39406,14.321881 v 0.999939 25.000024 h -1.99988 v 4.999695 h 1.99988 6.00015 1.99987 v -4.999695 h -1.99987 V 15.32182 14.321881 Z m 3.03392,1.49965 a 1.5,1.5 0 0 1 1.49965,1.500167 1.5,1.5 0 0 1 -1.49965,1.500167 1.5,1.5 0 0 1 -1.50017,-1.500167 1.5,1.5 0 0 1 1.50017,-1.500167 z m 0,17.500224 a 1.5,1.5 0 0 1 1.49965,1.500167 1.5,1.5 0 0 1 -1.49965,1.49965 1.5,1.5 0 0 1 -1.50017,-1.49965 1.5,1.5 0 0 1 1.50017,-1.500167 z m -0.0336,7.749914 a 1.5,1.5 0 0 1 1.49965,1.500167 1.5,1.5 0 0 1 -1.49965,1.49965 1.5,1.5 0 0 1 -1.50017,-1.49965 1.5,1.5 0 0 1 1.50017,-1.500167 z" />
    <path
       id="path1"
       style="fill:#000000;fill-opacity:0.639216;stroke-width:0.264583"
       d="m 145.65869,14.696058 v 0.999939 25.000024 h -1.99988 v 4.999695 h 1.99988 6.00015 1.99987 v -4.999695 h -1.99987 V 15.695997 14.696058 Z m 3.03392,1.49965 a 1.5,1.5 0 0 1 1.49965,1.500167 1.5,1.5 0 0 1 -1.49965,1.500167 1.5,1.5 0 0 1 -1.50017,-1.500167 1.5,1.5 0 0 1 1.50017,-1.500167 z m 0,17.500224 a 1.5,1.5 0 0 1 1.49965,1.500167 1.5,1.5 0 0 1 -1.49965,1.49965 1.5,1.5 0 0 1 -1.50017,-1.49965 1.5,1.5 0 0 1 1.50017,-1.500167 z m -0.0336,7.749914 a 1.5,1.5 0 0 1 1.49965,1.500167 1.5,1.5 0 0 1 -1.49965,1.49965 1.5,1.5 0 0 1 -1.50017,-1.49965 1.5,1.5 0 0 1 1.50017,-1.500167 z" />
    <path
       id="path2"
       style="fill:#000000;fill-opacity:0.639216;stroke-width:0.264583"
       d="m 159.12907,14.508969 v 0.999939 25.000024 h -1.99988 v 4.999695 h 1.99988 6.00015 1.99987 v -4.999695 h -1.99987 V 15.508908 14.508969 Z m 3.03392,1.49965 a 1.5,1.5 0 0 1 1.49965,1.500167 1.5,1.5 0 0 1 -1.49965,1.500167 1.5,1.5 0 0 1 -1.50017,-1.500167 1.5,1.5 0 0 1 1.50017,-1.500167 z m 0,17.500224 a 1.5,1.5 0 0 1 1.49965,1.500167 1.5,1.5 0 0 1 -1.49965,1.49965 1.5,1.5 0 0 1 -1.50017,-1.49965 1.5,1.5 0 0 1 1.50017,-1.500167 z m -0.0336,7.749914 a 1.5,1.5 0 0 1 1.49965,1.500167 1.5,1.5 0 0 1 -1.49965,1.49965 1.5,1.5 0 0 1 -1.50017,-1.49965 1.5,1.5 0 0 1 1.50017,-1.500167 z" />
  </g>
</svg>
