<?xml version="1.0" encoding="UTF-8" standalone="no"?>
<!-- Created with Inkscape (http://www.inkscape.org/) -->

<svg
   width="300mm"
   height="300mm"
   viewBox="0 0 300 300"
   version="1.1"
   id="svg1"
   inkscape:version="1.3 (0e150ed6c4, 2023-07-21)"
   sodipodi:docname="plaque de plexiglas.svg"
   xmlns:inkscape="http://www.inkscape.org/namespaces/inkscape"
   xmlns:sodipodi="http://sodipodi.sourceforge.net/DTD/sodipodi-0.dtd"
   xmlns="http://www.w3.org/2000/svg"
   xmlns:svg="http://www.w3.org/2000/svg">
  <sodipodi:namedview
     id="namedview1"
     pagecolor="#ffffff"
     bordercolor="#111111"
     borderopacity="1"
     inkscape:showpageshadow="0"
     inkscape:pageopacity="0"
     inkscape:pagecheckerboard="1"
     inkscape:deskcolor="#d1d1d1"
     inkscape:document-units="mm"
     inkscape:zoom="0.47307606"
     inkscape:cx="570.73275"
     inkscape:cy="571.78966"
     inkscape:window-width="1920"
     inkscape:window-height="986"
     inkscape:window-x="-11"
     inkscape:window-y="-11"
     inkscape:window-maximized="1"
     inkscape:current-layer="layer1" />
  <defs
     id="defs1" />
  <g
     inkscape:label="Calque 1"
     inkscape:groupmode="layer"
     id="layer1">
    <path
       id="rect1"
       style="fill:#000000;stroke-width:0.264583"
       d="M 0 0 L 0 65.000167 L 90.000191 65.000167 L 90.000191 0 L 0 0 z M 8.0000285 6.4998617 A 1.5 1.5 0 0 1 9.5001953 8.0000285 A 1.5 1.5 0 0 1 8.0000285 9.5001953 A 1.5 1.5 0 0 1 6.4998617 8.0000285 A 1.5 1.5 0 0 1 8.0000285 6.4998617 z M 82.000163 6.4998617 A 1.5 1.5 0 0 1 83.50033 8.0000285 A 1.5 1.5 0 0 1 82.000163 9.5001953 A 1.5 1.5 0 0 1 80.499996 8.0000285 A 1.5 1.5 0 0 1 82.000163 6.4998617 z M 33.094104 18.48621 A 1.5 1.5 0 0 1 34.593754 19.98586 A 1.5 1.5 0 0 1 33.094104 21.486027 A 1.5 1.5 0 0 1 31.593937 19.98586 A 1.5 1.5 0 0 1 33.094104 18.48621 z M 56.906604 18.48621 A 1.5 1.5 0 0 1 58.406254 19.98586 A 1.5 1.5 0 0 1 56.906604 21.486027 A 1.5 1.5 0 0 1 55.406437 19.98586 A 1.5 1.5 0 0 1 56.906604 18.48621 z M 44.999837 25.000024 A 7.5 7.4999993 0 0 1 52.500155 32.499825 A 7.5 7.4999993 0 0 1 44.999837 40.000142 A 7.5 7.4999993 0 0 1 37.500037 32.499825 A 7.5 7.4999993 0 0 1 44.999837 25.000024 z M 33.094104 43.51414 A 1.5 1.5 0 0 1 34.593754 45.014307 A 1.5 1.5 0 0 1 33.094104 46.513957 A 1.5 1.5 0 0 1 31.593937 45.014307 A 1.5 1.5 0 0 1 33.094104 43.51414 z M 56.906604 43.51414 A 1.5 1.5 0 0 1 58.406254 45.014307 A 1.5 1.5 0 0 1 56.906604 46.513957 A 1.5 1.5 0 0 1 55.406437 45.014307 A 1.5 1.5 0 0 1 56.906604 43.51414 z M 8.0000285 55.499972 A 1.5 1.5 0 0 1 9.5001953 57.000138 A 1.5 1.5 0 0 1 8.0000285 58.500305 A 1.5 1.5 0 0 1 6.4998617 57.000138 A 1.5 1.5 0 0 1 8.0000285 55.499972 z M 82.000163 55.499972 A 1.5 1.5 0 0 1 83.50033 57.000138 A 1.5 1.5 0 0 1 82.000163 58.500305 A 1.5 1.5 0 0 1 80.499996 57.000138 A 1.5 1.5 0 0 1 82.000163 55.499972 z " />
  </g>
</svg>
